<?xml version="1.0" standalone="no"?>
<!DOCTYPE svg PUBLIC "-//W3C//DTD SVG 20010904//EN"
 "http://www.w3.org/TR/2001/REC-SVG-20010904/DTD/svg10.dtd">
<svg version="1.0" xmlns="http://www.w3.org/2000/svg"
 width="1024.000000pt" height="1536.000000pt" viewBox="0 0 1024.000000 1536.000000"
 preserveAspectRatio="xMidYMid meet">

<g transform="translate(0.000000,1536.000000) scale(0.100000,-0.100000)"
fill="#000000" stroke="none">
<path d="M1755 12981 c-79 -14 -102 -38 -181 -190 -69 -132 -168 -231 -323
-320 -72 -41 -126 -80 -145 -104 l-31 -39 -3 -4481 c-1 -2465 0 -4492 3 -4505
10 -42 77 -102 183 -165 170 -101 256 -191 345 -362 42 -80 92 -120 161 -130
22 -3 1549 -5 3391 -3 l3350 3 43 24 c45 26 74 66 138 191 27 52 61 98 113
149 41 40 65 69 54 63 -49 -27 -151 -151 -197 -243 -27 -51 -60 -106 -74 -121
-58 -63 211 -58 -3484 -56 l-3366 3 -44 30 c-31 22 -53 50 -82 105 -85 166
-168 253 -334 351 -120 70 -149 94 -172 139 -20 39 -20 60 -18 4524 l3 4485
40 41 c22 23 88 69 147 102 75 42 127 81 172 127 87 88 100 106 148 203 43 88
88 144 126 159 14 5 1396 9 3403 9 2955 0 3383 -2 3408 -15 38 -19 80 -70 104
-125 36 -82 127 -210 186 -258 31 -26 104 -75 162 -109 124 -73 158 -106 174
-170 10 -38 13 -974 13 -4471 0 -2433 3 -4426 6 -4429 3 -4 6 1987 6 4424 0
3978 -2 4435 -16 4482 -20 68 -66 114 -174 171 -169 90 -249 173 -340 352 -47
92 -92 139 -147 156 -31 9 -788 12 -3374 11 -1834 -1 -3352 -5 -3374 -8z"/>
<path d="M1955 12870 c194 -7 6474 -4 6482 4 4 3 -1485 5 -3308 4 -1823 -1
-3251 -5 -3174 -8z"/>
<path d="M1733 12848 c-11 -13 -35 -50 -53 -83 -109 -199 -198 -289 -401 -404
-43 -24 -83 -55 -92 -71 -16 -26 -17 -342 -17 -4463 0 -2440 3 -4442 6 -4451
3 -9 10 -16 15 -16 6 0 5 8 -1 19 -7 14 -10 1414 -10 4448 0 4273 1 4429 18
4458 10 17 43 43 73 59 218 118 298 201 443 459 15 27 37 52 49 57 15 6 17 9
6 9 -8 1 -25 -9 -36 -21z"/>
<path d="M8465 12863 c31 -8 44 -22 71 -76 14 -27 28 -47 30 -44 8 7 -20 59
-52 96 -15 18 -35 31 -47 30 -21 -1 -21 -2 -2 -6z"/>
<path d="M8570 12726 c0 -19 83 -136 133 -189 75 -77 120 -112 212 -162 39
-21 86 -49 105 -63 l35 -25 -22 24 c-12 13 -63 46 -113 73 -117 64 -244 181
-301 277 -37 62 -49 78 -49 65z"/>
<path d="M9064 11935 c0 -181 2 -257 3 -168 2 89 2 237 0 330 -1 92 -3 20 -3
-162z"/>
<path d="M9063 11565 c0 -22 2 -30 4 -17 2 12 2 30 0 40 -3 9 -5 -1 -4 -23z"/>
<path d="M9064 11255 c0 -148 2 -211 3 -138 2 72 2 194 0 270 -1 76 -3 17 -3
-132z"/>
<path d="M9063 10905 c0 -44 2 -61 4 -37 2 23 2 59 0 80 -2 20 -4 1 -4 -43z"/>
<path d="M9063 10760 c0 -30 2 -43 4 -27 2 15 2 39 0 55 -2 15 -4 2 -4 -28z"/>
<path d="M9061 10684 c0 -11 3 -14 6 -6 3 7 2 16 -1 19 -3 4 -6 -2 -5 -13z"/>
<path d="M2010 10660 c-7 -14 -7 -20 0 -20 5 0 10 7 10 15 0 13 357 15 3108
12 l3107 -2 3 -28 3 -27 -3115 2 c-1714 2 -3116 0 -3116 -4 0 -5 1404 -8 3121
-8 l3120 0 -3 38 -3 37 -3112 3 c-3104 2 -3112 2 -3123 -18z"/>
<path d="M9064 10520 c0 -74 1 -105 3 -67 2 37 2 97 0 135 -2 37 -3 6 -3 -68z"/>
<path d="M9063 10300 c0 -41 2 -58 4 -37 2 20 2 54 0 75 -2 20 -4 3 -4 -38z"/>
<path d="M9064 10110 c0 -63 1 -89 3 -57 2 31 2 83 0 115 -2 31 -3 5 -3 -58z"/>
<path d="M9064 9780 c0 -107 2 -151 3 -97 2 53 2 141 0 195 -1 53 -3 9 -3 -98z"/>
<path d="M9063 9530 c0 -30 2 -43 4 -27 2 15 2 39 0 55 -2 15 -4 2 -4 -28z"/>
<path d="M9063 9395 c0 -44 2 -61 4 -37 2 23 2 59 0 80 -2 20 -4 1 -4 -43z"/>
<path d="M9065 8935 c0 -209 1 -296 2 -193 2 103 2 274 0 380 -1 106 -2 22 -2
-187z"/>
<path d="M9064 8275 c0 -154 2 -216 3 -137 2 79 2 205 0 280 -1 75 -3 11 -3
-143z"/>
<path d="M9065 7035 c0 -528 1 -743 2 -477 2 266 2 698 0 960 -1 262 -2 45 -2
-483z"/>
<path d="M9061 6054 c0 -11 3 -14 6 -6 3 7 2 16 -1 19 -3 4 -6 -2 -5 -13z"/>
<path d="M9063 5975 c0 -33 2 -45 4 -27 2 18 2 45 0 60 -2 15 -4 0 -4 -33z"/>
<path d="M9063 5800 c0 -25 2 -35 4 -22 2 12 2 32 0 45 -2 12 -4 2 -4 -23z"/>
<path d="M9064 5520 c0 -91 2 -128 3 -82 2 45 2 119 0 165 -1 45 -3 8 -3 -83z"/>
<path d="M9061 5314 c0 -11 3 -14 6 -6 3 7 2 16 -1 19 -3 4 -6 -2 -5 -13z"/>
<path d="M9064 5075 c0 -121 2 -169 3 -107 2 62 2 161 0 220 -1 59 -3 8 -3
-113z"/>
<path d="M9063 4815 c0 -22 2 -30 4 -17 2 12 2 30 0 40 -3 9 -5 -1 -4 -23z"/>
<path d="M9063 4720 c0 -30 2 -43 4 -27 2 15 2 39 0 55 -2 15 -4 2 -4 -28z"/>
<path d="M9064 4565 c0 -55 1 -76 3 -47 2 29 2 74 0 100 -2 26 -3 2 -3 -53z"/>
<path d="M9063 4385 c0 -44 2 -61 4 -37 2 23 2 59 0 80 -2 20 -4 1 -4 -43z"/>
<path d="M9063 4230 c0 -41 2 -58 4 -37 2 20 2 54 0 75 -2 20 -4 3 -4 -38z"/>
<path d="M9062 4060 c0 -19 2 -27 5 -17 2 9 2 25 0 35 -3 9 -5 1 -5 -18z"/>
<path d="M9063 3975 c0 -27 2 -38 4 -22 2 15 2 37 0 50 -2 12 -4 0 -4 -28z"/>
<path d="M9063 3870 c0 -30 2 -43 4 -27 2 15 2 39 0 55 -2 15 -4 2 -4 -28z"/>
<path d="M9062 3780 c0 -19 2 -27 5 -17 2 9 2 25 0 35 -3 9 -5 1 -5 -18z"/>
<path d="M9061 3404 c0 -11 3 -14 6 -6 3 7 2 16 -1 19 -3 4 -6 -2 -5 -13z"/>
<path d="M9048 3368 c-3 -7 -59 -44 -124 -82 -160 -94 -276 -209 -351 -347
-51 -93 -73 -121 -103 -132 -13 -5 -12 -6 1 -6 26 -1 60 40 118 143 88 156
161 226 362 344 83 49 117 77 107 88 -3 3 -8 -1 -10 -8z"/>
<path d="M9156 3351 c-11 -47 -70 -101 -169 -155 -47 -26 -90 -53 -97 -61 -20
-24 183 95 218 129 40 37 65 81 59 104 -2 10 -6 4 -11 -17z"/>
<path d="M1206 3341 c5 -6 52 -35 104 -66 183 -110 261 -187 360 -360 61 -107
68 -115 88 -115 10 0 7 6 -10 19 -13 11 -40 48 -58 83 -84 160 -194 276 -342
362 -46 27 -95 57 -110 67 -28 20 -49 26 -32 10z"/>
<path d="M1880 2800 c0 -5 7 -7 15 -4 8 4 15 8 15 10 0 2 -7 4 -15 4 -8 0 -15
-4 -15 -10z"/>
<path d="M1995 2801 c-2 -4 17 -9 42 -10 26 -1 43 2 39 6 -10 10 -75 13 -81 4z"/>
<path d="M2193 2798 c-6 -11 39 -10 55 1 9 5 3 8 -18 7 -18 -1 -34 -4 -37 -8z"/>
<path d="M2270 2802 c0 -4 11 -8 25 -8 14 0 25 4 25 8 0 4 -11 8 -25 8 -14 0
-25 -4 -25 -8z"/>
<path d="M2350 2803 c0 -5 16 -9 35 -10 20 -1 33 3 30 8 -7 11 -65 12 -65 2z"/>
<path d="M2430 2799 c0 -12 589 -9 596 3 3 5 -130 8 -295 7 -185 0 -301 -4
-301 -10z"/>
<path d="M3040 2800 c0 -5 54 -8 120 -8 66 1 120 5 120 10 0 4 -54 8 -120 7
-66 0 -120 -4 -120 -9z"/>
<path d="M3310 2802 c0 -5 7 -9 15 -9 8 0 15 4 15 9 0 4 -7 8 -15 8 -8 0 -15
-4 -15 -8z"/>
<path d="M3354 2799 c-3 -6 55 -9 160 -8 91 1 163 5 161 9 -7 11 -314 10 -321
-1z"/>
<path d="M3714 2799 c-3 -5 42 -9 100 -9 59 0 106 4 106 9 0 12 -199 11 -206
0z"/>
<path d="M3950 2802 c0 -5 7 -9 15 -9 8 0 12 4 9 9 -3 4 -9 8 -15 8 -5 0 -9
-4 -9 -8z"/>
<path d="M4015 2800 c-27 -7 -25 -8 18 -9 26 0 47 4 47 9 0 11 -21 11 -65 0z"/>
<path d="M4090 2800 c0 -4 39 -9 86 -9 47 -1 83 3 80 7 -7 11 -166 13 -166 2z"/>
<path d="M4275 2799 c6 -9 225 -9 225 0 0 5 -51 8 -114 8 -63 -1 -113 -4 -111
-8z"/>
<path d="M4510 2800 c0 -5 11 -10 25 -10 14 0 25 5 25 10 0 6 -11 10 -25 10
-14 0 -25 -4 -25 -10z"/>
<path d="M4595 2800 c-4 -6 7 -10 24 -10 17 0 31 5 31 10 0 6 -11 10 -24 10
-14 0 -28 -4 -31 -10z"/>
<path d="M4670 2800 c0 -4 70 -8 155 -8 85 0 153 3 150 8 -6 10 -305 10 -305
0z"/>
<path d="M4996 2802 c-2 -4 4 -9 15 -9 10 -1 19 2 19 8 0 11 -27 12 -34 1z"/>
<path d="M5080 2800 c-25 -4 70 -7 210 -8 140 0 248 3 241 7 -16 10 -382 10
-451 1z"/>
<path d="M5550 2798 c0 -4 70 -7 155 -7 88 1 153 5 149 10 -6 11 -304 8 -304
-3z"/>
<path d="M5876 2802 c-3 -6 69 -9 192 -9 108 0 184 3 167 6 -50 11 -352 13
-359 3z"/>
<path d="M6270 2800 c0 -6 31 -10 77 -10 42 0 74 2 71 5 -11 11 -148 16 -148
5z"/>
<path d="M6434 2798 c-3 -4 11 -8 30 -8 20 0 36 2 36 4 0 8 -61 12 -66 4z"/>
<path d="M6580 2799 c-21 -4 17 -7 94 -8 71 0 126 2 123 5 -9 9 -175 12 -217
3z"/>
<path d="M6830 2802 c0 -5 7 -9 15 -9 8 0 15 4 15 9 0 4 -7 8 -15 8 -8 0 -15
-4 -15 -8z"/>
<path d="M6876 2801 c-3 -4 20 -9 52 -10 40 0 53 2 42 9 -19 12 -87 13 -94 1z"/>
<path d="M7036 2802 c-3 -5 39 -9 92 -10 59 -1 91 2 83 7 -18 12 -168 14 -175
3z"/>
<path d="M7240 2799 c0 -5 11 -9 25 -9 33 0 33 15 0 16 -14 1 -25 -2 -25 -7z"/>
<path d="M7305 2802 c9 -10 135 -12 135 -3 0 5 -32 9 -70 9 -39 -1 -68 -3 -65
-6z"/>
<path d="M7485 2800 c3 -5 8 -10 11 -10 2 0 4 5 4 10 0 6 -5 10 -11 10 -5 0
-7 -4 -4 -10z"/>
<path d="M7525 2800 c-3 -5 -1 -10 4 -10 6 0 11 5 11 10 0 6 -2 10 -4 10 -3 0
-8 -4 -11 -10z"/>
<path d="M7550 2799 c0 -5 35 -9 78 -9 48 0 72 4 63 9 -18 12 -141 12 -141 0z"/>
<path d="M7790 2806 c0 -2 7 -7 16 -10 8 -3 12 -2 9 4 -6 10 -25 14 -25 6z"/>
<path d="M7890 2800 c-22 -7 -20 -8 13 -7 20 1 37 5 37 9 0 10 -16 9 -50 -2z"/>
<path d="M7950 2802 c0 -10 57 -9 66 1 4 4 -9 7 -29 7 -20 0 -37 -4 -37 -8z"/>
<path d="M8045 2800 c3 -5 10 -10 16 -10 5 0 9 5 9 10 0 6 -7 10 -16 10 -8 0
-12 -4 -9 -10z"/>
<path d="M8083 2804 c11 -12 97 -15 97 -4 0 5 -23 10 -52 10 -28 0 -48 -3 -45
-6z"/>
<path d="M8190 2800 c0 -5 31 -9 70 -8 38 1 67 5 64 10 -7 11 -134 10 -134 -2z"/>
<path d="M8357 2803 c-3 -5 11 -9 31 -10 26 -1 32 1 22 7 -18 12 -47 13 -53 3z"/>
<path d="M1823 2793 c9 -2 23 -2 30 0 6 3 -1 5 -18 5 -16 0 -22 -2 -12 -5z"/>
<path d="M2143 2793 c9 -2 23 -2 30 0 6 3 -1 5 -18 5 -16 0 -22 -2 -12 -5z"/>
<path d="M6998 2793 c7 -3 16 -2 19 1 4 3 -2 6 -13 5 -11 0 -14 -3 -6 -6z"/>
<path d="M7728 2793 c12 -2 30 -2 40 0 9 3 -1 5 -23 4 -22 0 -30 -2 -17 -4z"/>
<path d="M7838 2793 c7 -3 16 -2 19 1 4 3 -2 6 -13 5 -11 0 -14 -3 -6 -6z"/>
</g>
</svg>
